<svg class="cmp-logo__image" xmlns="http://www.w3.org/2000/svg" viewBox="0 0 171 55" aria-hidden="true" style="transition:all .3s ease-out" xml:space="preserve"><path d="M64.7 41.72a3.7 3.7 0 0 0-.24-1.38 2.64 2.64 0 0 0-1.67-1.65 4 4 0 0 0-1.34-.21h-5.08V45h5.08a3.17 3.17 0 0 0 2.44-.87 3.38 3.38 0 0 0 .81-2.4m2.89 0a6.6 6.6 0 0 1-.47 2.57 5 5 0 0 1-1.29 1.85 5.5 5.5 0 0 1-2 1.13 8.1 8.1 0 0 1-2.53.38h-5v7.04h-2.72V35.8h7.92a7.5 7.5 0 0 1 2.42.38 5.3 5.3 0 0 1 1.93 1.11 5 5 0 0 1 1.27 1.85 6.7 6.7 0 0 1 .47 2.58m9.72 6.93a5 5 0 0 0-.71-.28 6 6 0 0 0-.66-.18c-.23 0-.5-.08-.82-.11s-.67 0-1.05 0a3.54 3.54 0 0 0-2.13.57 1.78 1.78 0 0 0-.79 1.54 2.2 2.2 0 0 0 .23 1.07 1.94 1.94 0 0 0 .56.72 2.6 2.6 0 0 0 .81.42 4.2 4.2 0 0 0 1.13.13 3.8 3.8 0 0 0 1.12-.2 5 5 0 0 0 1-.42 4.4 4.4 0 0 0 .81-.58 3.5 3.5 0 0 0 .59-.65Zm0 6.05v-1.4a8 8 0 0 1-.89.73c-.24.16-.49.3-.74.44a5.5 5.5 0 0 1-1 .37 5.2 5.2 0 0 1-1.29.16 6.2 6.2 0 0 1-1.73-.26A4.3 4.3 0 0 1 69 52.43a5 5 0 0 1-.45-2.21 4.5 4.5 0 0 1 .43-2 3.9 3.9 0 0 1 1.18-1.43 5.2 5.2 0 0 1 1.8-.84 9 9 0 0 1 2.24-.27 10 10 0 0 1 1.88.15 5.6 5.6 0 0 1 1.28.39v-1.1a2.26 2.26 0 0 0-.68-1.78 2.9 2.9 0 0 0-2-.62 8.6 8.6 0 0 0-2 .21 7 7 0 0 0-1.71.67l-1.08-2.09a8.4 8.4 0 0 1 2.18-1 10.3 10.3 0 0 1 2.67-.32 7.7 7.7 0 0 1 2.17.29 4.6 4.6 0 0 1 1.69.88 4.1 4.1 0 0 1 1.09 1.49 5.25 5.25 0 0 1 .39 2.1v9.75Zm13.14-11.23a4 4 0 0 0-1-.38 4.5 4.5 0 0 0-1.13-.09 2.48 2.48 0 0 0-2.06.91 4.37 4.37 0 0 0-.72 2.74v8.05h-2.79V40.53h2.79v1.35a3.3 3.3 0 0 1 .58-.66 4.6 4.6 0 0 1 .76-.52 4.7 4.7 0 0 1 .89-.35 4 4 0 0 1 1-.12 5.3 5.3 0 0 1 1.43.16 3.7 3.7 0 0 1 1 .43Zm10.3 10.87a5.6 5.6 0 0 1-1.2.48A6 6 0 0 1 98 55a3.8 3.8 0 0 1-1.27-.2 2.9 2.9 0 0 1-1-.65 2.7 2.7 0 0 1-.66-1.15 5.6 5.6 0 0 1-.24-1.75v-8.19h-2v-2.53h2v-4L97.56 35v5.5h3.51v2.53h-3.51v7.7a3 3 0 0 0 .09.82 1.1 1.1 0 0 0 .26.52 1 1 0 0 0 .45.28 2.6 2.6 0 0 0 .66.08 4 4 0 0 0 1.11-.17 5 5 0 0 0 .94-.4Zm11.53.36v-8a5 5 0 0 0-.7-2.93 2.56 2.56 0 0 0-2.22-1 3.3 3.3 0 0 0-1.19.21 2.14 2.14 0 0 0-.94.7 3.5 3.5 0 0 0-.59 1.14 5.6 5.6 0 0 0-.19 1.56v8.32h-2.79V36.49l2.79-1.49v6.85a3 3 0 0 1 .64-.69 4 4 0 0 1 .85-.52 4.6 4.6 0 0 1 1-.33 5.5 5.5 0 0 1 1.08-.11 5.6 5.6 0 0 1 2.22.41 4.14 4.14 0 0 1 1.58 1.2 5.5 5.5 0 0 1 1 2 11.5 11.5 0 0 1 .31 2.71v8.18Zm14.24-8.4a6 6 0 0 0-.26-1.37 3.4 3.4 0 0 0-.61-1.13 2.8 2.8 0 0 0-1-.77 3.5 3.5 0 0 0-1.47-.28 3.2 3.2 0 0 0-1.3.24 2.7 2.7 0 0 0-1 .69 3.8 3.8 0 0 0-.65 1.1 6 6 0 0 0-.35 1.52Zm2.81 1v.71c0 .22 0 .41-.05.56h-9.38a6 6 0 0 0 .45 1.76 3.9 3.9 0 0 0 .8 1.2 3 3 0 0 0 1.08.7 3.5 3.5 0 0 0 1.24.22 4.4 4.4 0 0 0 1.66-.31c.25-.11.47-.22.67-.33s.44-.27.75-.49l1.65 1.78a7.5 7.5 0 0 1-1 .81 7 7 0 0 1-1 .55 5.7 5.7 0 0 1-1.28.38 8.5 8.5 0 0 1-1.57.13 5.8 5.8 0 0 1-1.73-.26 5.5 5.5 0 0 1-1.42-.67 6 6 0 0 1-1.12-1 6.4 6.4 0 0 1-.94-1.37 7.5 7.5 0 0 1-.69-1.87 10 10 0 0 1-.24-2.26 10.2 10.2 0 0 1 .46-3.17 6.5 6.5 0 0 1 1.27-2.32 5.24 5.24 0 0 1 2-1.42 6.5 6.5 0 0 1 2.52-.48 5.8 5.8 0 0 1 2.64.57 5.5 5.5 0 0 1 1.86 1.54A6.9 6.9 0 0 1 129 44.6a9.8 9.8 0 0 1 .37 2.73M140 54.7v-8a5.06 5.06 0 0 0-.69-2.91 2.54 2.54 0 0 0-2.23-1 3.15 3.15 0 0 0-1.24.24 2.2 2.2 0 0 0-1 .73 3.1 3.1 0 0 0-.55 1.18 5.7 5.7 0 0 0-.18 1.46v8.3h-2.71V40.53h2.78v1.35a3.3 3.3 0 0 1 .65-.69 4 4 0 0 1 .85-.52 4.4 4.4 0 0 1 1-.33 5.7 5.7 0 0 1 1.09-.11 5.4 5.4 0 0 1 2.22.42 4 4 0 0 1 1.57 1.19 5.35 5.35 0 0 1 1 2 11 11 0 0 1 .31 2.78v8.08Zm14.72-7.08a7.3 7.3 0 0 0-.25-1.95 4.6 4.6 0 0 0-.72-1.5 3.5 3.5 0 0 0-1.14-1 3.4 3.4 0 0 0-1.52-.33 3 3 0 0 0-1.42.33 3.1 3.1 0 0 0-1.07.95 4.5 4.5 0 0 0-.68 1.47 7 7 0 0 0-.24 1.91 7.6 7.6 0 0 0 .26 2.07 4.2 4.2 0 0 0 .73 1.5 3.1 3.1 0 0 0 1.12.93 3.24 3.24 0 0 0 1.44.31 2.75 2.75 0 0 0 1.43-.37 3.4 3.4 0 0 0 1.1-1 5.1 5.1 0 0 0 .71-1.5 7 7 0 0 0 .25-1.84m2.81-.08a9.3 9.3 0 0 1-.49 3.15 6.9 6.9 0 0 1-1.35 2.33 5.64 5.64 0 0 1-2 1.46 6.45 6.45 0 0 1-2.53.5 5.82 5.82 0 0 1-4.47-2 7 7 0 0 1-1.31-2.33 10 10 0 0 1 0-6.14 6.9 6.9 0 0 1 1.34-2.32 5.65 5.65 0 0 1 2-1.46 6.2 6.2 0 0 1 2.5-.5 6 6 0 0 1 2.51.52 5.8 5.8 0 0 1 2 1.48 7.1 7.1 0 0 1 1.33 2.3 9 9 0 0 1 .48 3m10.68 7.19v-8a5.06 5.06 0 0 0-.69-2.91 2.54 2.54 0 0 0-2.23-1 3.15 3.15 0 0 0-1.24.24 2.2 2.2 0 0 0-.95.73 3.3 3.3 0 0 0-.56 1.18 6.2 6.2 0 0 0-.17 1.46v8.3h-2.78V40.53h2.78v1.35a3 3 0 0 1 .65-.69 3.8 3.8 0 0 1 .84-.52 4.6 4.6 0 0 1 1-.33 5.6 5.6 0 0 1 1.08-.11 5.4 5.4 0 0 1 2.23.42 4 4 0 0 1 1.57 1.19 5.2 5.2 0 0 1 .94 2 11 11 0 0 1 .32 2.78v8.08Z" style="fill:#1a9afa"/><path style="fill:#ffe600" d="M53.58 0 0 19.52l53.58-9.45z"/><path d="m36.11 27.64-4.6 8.83-4.59-8.83h-9L27.4 44v10.7h8.1V44L45 27.64ZM0 27.64V54.7h21.68v-6.23H8.13V44h9.8v-5.67h-9.8v-4.47H19l-3.6-6.22Z" style="fill:#2e2e38"/></svg>