<?xml version="1.0" standalone="no"?>
<!DOCTYPE svg PUBLIC "-//W3C//DTD SVG 20010904//EN"
 "http://www.w3.org/TR/2001/REC-SVG-20010904/DTD/svg10.dtd">
<svg version="1.0" xmlns="http://www.w3.org/2000/svg"
 width="265.000000pt" height="130.000000pt" viewBox="0 0 265.000000 130.000000"
 preserveAspectRatio="xMidYMid meet">

<g transform="translate(0.000000,130.000000) scale(0.100000,-0.100000)"
fill="#000000" stroke="none">
<path d="M1935 1293 c-156 -21 -338 -131 -426 -260 -83 -121 -119 -235 -119
-383 0 -195 68 -352 208 -482 74 -68 128 -100 223 -132 303 -101 625 40 764
336 154 328 12 721 -314 870 -100 46 -228 65 -336 51z m215 -43 c33 -18 23
-28 -37 -41 -93 -19 -255 3 -226 32 27 27 216 34 263 9z m216 -95 c57 -41 124
-109 124 -126 0 -7 -61 -31 -66 -27 -1 2 -22 30 -47 64 -43 59 -108 119 -155
143 -12 7 -20 16 -17 21 8 13 90 -25 161 -75z m-576 57 c-42 -27 -110 -103
-138 -155 -25 -44 -29 -48 -57 -42 -16 3 -34 10 -40 16 -15 15 111 131 182
168 63 32 93 40 53 13z m85 -12 c3 -5 15 -10 26 -10 10 0 19 -3 19 -6 0 -4
-24 -32 -52 -63 -29 -31 -64 -78 -78 -104 -14 -26 -31 -47 -38 -47 -26 0 -102
23 -102 30 0 4 19 36 41 70 64 94 163 165 184 130z m351 -26 c81 -54 176 -166
157 -185 -5 -5 -29 -12 -53 -15 -44 -6 -45 -5 -65 32 -11 21 -48 69 -83 105
l-63 67 28 10 c39 14 36 15 79 -14z m-242 0 c13 -5 16 -26 16 -121 l0 -115
-77 7 c-98 8 -123 14 -123 29 0 20 70 117 118 162 25 24 47 44 48 44 1 0 9 -3
18 -6z m155 -60 c33 -30 74 -76 91 -102 29 -44 30 -47 11 -53 -10 -4 -62 -11
-115 -15 l-96 -7 0 117 0 116 24 0 c16 0 46 -20 85 -56z m-569 -120 c31 -13
40 -21 35 -33 -4 -9 -14 -35 -22 -58 -14 -39 -17 -42 -41 -36 -69 17 -77 20
-74 36 3 17 51 107 58 107 2 0 22 -7 44 -16z m976 -45 c14 -28 22 -55 17 -59
-4 -5 -25 -13 -46 -18 -36 -10 -38 -9 -48 16 -5 15 -15 40 -21 55 -6 15 -9 29
-7 30 12 8 56 26 66 26 7 1 24 -22 39 -50z m-800 -11 c2 -2 -4 -27 -13 -56
-12 -38 -21 -51 -32 -48 -9 3 -35 8 -59 11 -41 7 -43 9 -37 33 3 14 12 40 20
58 l13 33 52 -14 c29 -8 54 -15 56 -17z m685 -23 c11 -25 17 -49 14 -55 -5 -7
-77 -23 -102 -22 -4 0 -15 23 -24 50 l-17 50 36 10 c65 17 72 15 93 -33z
m-453 -1 c19 -4 22 -11 22 -54 l0 -50 -67 1 c-38 1 -93 4 -123 7 -63 8 -70 19
-46 77 l15 36 88 -6 c48 -3 98 -8 111 -11z m316 -31 c9 -25 14 -49 11 -52 -9
-8 -114 -19 -197 -20 l-78 -1 0 49 0 50 53 5 c47 6 88 9 169 14 23 2 28 -4 42
-45z m146 -88 c0 -2 -13 -54 -30 -115 -16 -61 -30 -115 -30 -120 0 -6 38 -10
90 -10 89 0 96 -3 84 -34 -5 -14 -29 -16 -159 -16 l-153 0 30 111 c16 61 27
117 24 125 -5 12 -30 14 -133 12 -120 -3 -128 -4 -128 -23 0 -18 8 -20 88 -23
102 -3 105 -6 87 -84 -18 -82 -31 -109 -57 -119 -13 -5 -87 -9 -164 -9 -114 0
-139 3 -139 14 0 24 19 29 99 27 84 -2 111 4 111 25 0 11 -18 14 -80 14 -74 0
-81 2 -96 25 -15 23 -15 28 0 72 27 78 24 83 -38 83 -33 0 -58 -5 -63 -12 -4
-7 -19 -67 -34 -133 l-25 -120 -62 -3 c-73 -4 -71 -10 -42 133 28 136 28 135
-20 135 -32 0 -40 4 -40 18 0 10 3 22 7 25 7 8 873 10 873 2z m-440 -359 l0
-43 -87 -6 c-49 -4 -102 -9 -119 -13 -29 -5 -31 -4 -43 36 -7 23 -9 45 -6 48
6 7 113 17 208 20 l47 2 0 -44z m233 24 c38 -5 71 -11 74 -14 3 -3 2 -22 -1
-42 -7 -36 -8 -36 -44 -30 -20 3 -81 9 -134 13 l-98 6 0 37 c0 20 2 39 5 41 6
6 108 1 198 -11z m-514 -37 c6 -21 11 -43 11 -49 0 -9 -69 -34 -94 -34 -10 0
-37 73 -34 90 2 8 18 18 38 21 66 12 69 11 79 -28z m-134 -44 c9 -28 15 -51
14 -53 -13 -8 -62 -26 -72 -26 -11 0 -53 70 -59 99 -2 9 13 18 42 26 25 7 48
10 52 8 3 -2 14 -26 23 -54z m853 46 c6 -6 -16 -85 -24 -85 -3 0 -25 5 -50 11
-33 9 -44 16 -40 26 4 8 9 26 12 40 6 24 10 25 52 19 25 -3 48 -8 50 -11z m95
-19 c15 -4 27 -11 27 -17 0 -11 -38 -89 -44 -89 -2 0 -19 7 -39 15 l-35 14 17
46 c11 31 21 44 31 41 8 -2 27 -7 43 -10z m-533 -160 c0 -108 -1 -114 -22
-119 -29 -8 -48 4 -101 63 -55 61 -102 139 -91 150 11 10 58 16 147 18 l67 2
0 -114z m273 95 c16 -16 -39 -117 -94 -174 -43 -45 -51 -49 -80 -43 -17 3 -40
6 -50 6 -18 0 -19 9 -19 116 l0 117 116 -6 c64 -3 121 -10 127 -16z m-496 -60
c18 -33 55 -84 83 -114 l50 -55 -30 -12 c-28 -12 -33 -10 -86 30 -57 43 -147
155 -141 174 3 8 60 32 87 35 3 0 20 -26 37 -58z m598 39 c23 -9 25 -12 14
-32 -24 -47 -95 -132 -138 -164 -48 -37 -50 -38 -70 -25 -11 7 -6 19 28 57 22
26 55 76 73 111 32 66 43 72 93 53z m-744 -42 c28 -56 95 -133 151 -174 73
-53 62 -56 -33 -9 -43 22 -98 62 -142 105 l-72 69 35 15 c46 20 47 20 61 -6z
m833 12 c14 -5 26 -13 26 -18 0 -31 -195 -192 -232 -192 -5 0 17 26 49 59 32
32 72 81 88 109 33 57 32 56 69 42z m-304 -210 l24 -13 -30 -15 c-57 -30 -289
-15 -269 18 19 30 223 38 275 10z"/>
<path d="M205 945 l0 -55 564 2 564 3 23 53 23 52 -587 0 -587 0 0 -55z"/>
<path d="M255 823 l-50 -4 3 -174 3 -175 551 0 c508 0 550 1 544 17 -19 49
-28 167 -18 236 6 41 14 81 18 90 6 16 -32 17 -497 15 -277 -1 -526 -3 -554
-5z"/>
<path d="M230 401 c-22 -5 -25 -11 -25 -51 0 -40 3 -46 25 -51 46 -12 1140
-10 1140 2 0 6 -10 33 -21 60 l-21 49 -537 -1 c-295 -1 -547 -4 -561 -8z"/>
</g>
</svg>
